<?xml version="1.0" encoding="UTF-8" standalone="no"?>
<svg
   xmlns:dc="http://purl.org/dc/elements/1.1/"
   xmlns:cc="http://creativecommons.org/ns#"
   xmlns:rdf="http://www.w3.org/1999/02/22-rdf-syntax-ns#"
   xmlns:svg="http://www.w3.org/2000/svg"
   xmlns="http://www.w3.org/2000/svg"
   xmlns:sodipodi="http://sodipodi.sourceforge.net/DTD/sodipodi-0.dtd"
   xmlns:inkscape="http://www.inkscape.org/namespaces/inkscape"
   version="1.1"
   x="0px"
   y="0px"
   viewBox="0 0 100 25"
   enable-background="new 0 0 100 100"
   xml:space="preserve"
   id="svg3405"
   inkscape:version="0.91 r"
   sodipodi:docname="arrow.svg"
   width="100"
   height="25"><metadata
     id="metadata3437"><rdf:RDF><cc:Work
         rdf:about=""><dc:format>image/svg+xml</dc:format><dc:type
           rdf:resource="http://purl.org/dc/dcmitype/StillImage" /><dc:title></dc:title></cc:Work></rdf:RDF></metadata><defs
     id="defs3435" /><sodipodi:namedview
     pagecolor="#ffffff"
     bordercolor="#666666"
     borderopacity="1"
     objecttolerance="10"
     gridtolerance="10"
     guidetolerance="10"
     inkscape:pageopacity="0"
     inkscape:pageshadow="2"
     inkscape:window-width="1920"
     inkscape:window-height="988"
     id="namedview3433"
     showgrid="false"
     inkscape:zoom="6.456"
     inkscape:cx="49.845105"
     inkscape:cy="62.5"
     inkscape:window-x="0"
     inkscape:window-y="25"
     inkscape:window-maximized="1"
     inkscape:current-layer="g3407" /><g
     id="g3407"
     transform="matrix(-1,0,0,1,100.73724,-38)"
     style="fill:#333333"><g
       id="g3409"
       style="fill:#333398;fill-opacity:1"><g
         id="g3411"
         style="fill:#333398;fill-opacity:1"><path
           d="m 61.069,49.078 17.17,-0.075 c 2.184,0.499 3.557,0.991 -0.16,1.448 l -37.345,0.103 c -2.268,0.273 -4.549,0.233 -6.838,0.019 l -0.603,0.012 c -1.792,0.125 -4.156,0.335 -4.445,-0.333 -0.283,-0.652 2.033,-0.938 4.405,-0.936 6.846,0.007 13.698,0.06 20.542,-0.021 2.432,-0.03 5.008,0.184 7.274,-0.217 z"
           id="path3413"
           inkscape:connector-curvature="0"
           style="fill:#333398;fill-opacity:1" /><path
           d="m 61.069,49.078 c -4.233,0.647 -9.01,0.52 -13.617,0.576 -4.646,0.059 -9.311,0.009 -13.966,0.029 -0.948,0.003 -2.052,0.152 -1.915,0.408 0.094,0.18 1.112,0.328 1.721,0.492 -6.744,0.509 -13.612,0.478 -20.504,0.278 -0.476,-0.015 -1.046,-0.156 -1.295,-0.277 -0.57,-0.275 0.239,-0.486 1.044,-0.564 2.029,-0.198 4.12,-0.43 6.245,-0.476 14.068,-0.304 28.14,-0.616 42.287,-0.466 z"
           id="path3415"
           inkscape:connector-curvature="0"
           style="fill:#333398;fill-opacity:1" /><path
           d="m 78.08,50.451 c 1.037,-0.476 0.778,-0.961 0.16,-1.448 4.119,0.766 4.1,0.936 -0.16,1.448 z"
           id="path3417"
           inkscape:connector-curvature="0"
           style="fill:#333398;fill-opacity:1" /><path
           d="m 33.896,50.572 c 2.279,-0.006 4.557,-0.012 6.838,-0.019 -2.268,0.285 -4.547,0.309 -6.838,0.019 z"
           id="path3419"
           inkscape:connector-curvature="0"
           style="fill:#333398;fill-opacity:1" /></g></g><g
       id="g3421"
       style="fill:#333398;fill-opacity:1"><g
         id="g3423"
         style="fill:#333398;fill-opacity:1"><path
           d="m 80.379,52.926 -0.075,-8.761 c 0.499,-1.114 0.991,-1.815 1.448,0.082 0.024,4.383 0.048,8.767 0.048,13.151 -0.29,-0.123 -0.579,-0.246 -0.862,-0.364 l 4.147,-4.203 c 0.625,-1.011 1.476,-1.807 2.455,-2.48 l 0.209,-0.226 c 0.148,-0.193 0.31,-0.403 0.467,-0.607 l 0,0.966 c -0.561,-0.454 -1.032,-0.948 -0.761,-1.372 0.284,-0.446 0.993,-0.142 1.702,0.431 0.247,0.2 0.285,0.562 0.085,0.81 l -0.085,0.106 c -0.149,0.184 -0.318,0.37 -0.497,0.548 -2.295,2.287 -4.621,4.548 -6.871,6.879 -0.263,0.272 -0.697,0.28 -0.969,0.018 -0.135,-0.131 -0.205,-0.303 -0.209,-0.478 l -0.001,-0.028 -0.016,-0.76 c -0.028,-1.241 0.186,-2.555 -0.215,-3.712 z"
           id="path3425"
           inkscape:connector-curvature="0"
           style="fill:#333398;fill-opacity:1" /><path
           d="m 80.379,52.926 c 0.422,1.406 0.515,2.93 0.544,4.471 l 0,0.012 c 0.004,0.208 0.175,0.373 0.383,0.369 0.103,-0.002 0.196,-0.045 0.262,-0.113 0.576,-0.592 1.156,-1.187 1.729,-1.775 1.635,-1.718 3.353,-3.366 5.019,-5.06 0.226,-0.229 0.432,-0.53 0.473,-0.741 l 0.027,-0.139 c 0.003,-0.019 -0.008,-0.037 -0.027,-0.041 -0.11,-0.025 -0.195,-0.006 -0.239,0.07 -0.024,0.042 -0.024,0.103 -0.01,0.178 0,-0.093 0,-0.185 0,-0.317 -0.216,0.04 -0.541,0.205 -0.791,0.283 l 0.463,-0.61 c 0,0.319 0,0.646 0,0.972 -2.542,-1.977 -4.811,-4.302 -6.985,-6.738 -0.161,-0.182 -0.267,-0.488 -0.271,-0.663 -0.011,-0.4 0.43,-0.257 0.776,-0.022 0.872,0.592 1.791,1.183 2.589,1.917 l 4.89,4.507 c 0.283,0.26 0.301,0.701 0.04,0.983 l -0.001,0.002 -0.039,0.042 c -2.37,2.552 -4.767,5.084 -7.231,7.563 -0.374,0.376 -0.981,0.377 -1.356,0.004 -0.187,-0.186 -0.282,-0.43 -0.283,-0.674 l 0,-0.008 c -0.004,-1.488 0.007,-2.979 0.038,-4.472 z"
           id="path3427"
           inkscape:connector-curvature="0"
           style="fill:#333398;fill-opacity:1" /><path
           d="m 81.752,44.247 c -0.476,-0.529 -0.961,-0.397 -1.448,-0.082 0.765,-2.103 0.937,-2.092 1.448,0.082 z"
           id="path3429"
           inkscape:connector-curvature="0"
           style="fill:#333398;fill-opacity:1" /><path
           d="m 87.54,50.351 -2.455,2.48 c 0.617,-1.019 1.423,-1.859 2.455,-2.48 z"
           id="path3431"
           inkscape:connector-curvature="0"
           style="fill:#333398;fill-opacity:1" /></g></g></g></svg>