<?xml version="1.0" encoding="UTF-8" standalone="no"?>
<!-- Created with Inkscape (http://www.inkscape.org/) -->

<svg
   xmlns:dc="http://purl.org/dc/elements/1.1/"
   xmlns:cc="http://creativecommons.org/ns#"
   xmlns:rdf="http://www.w3.org/1999/02/22-rdf-syntax-ns#"
   xmlns:svg="http://www.w3.org/2000/svg"
   xmlns="http://www.w3.org/2000/svg"
   xmlns:sodipodi="http://sodipodi.sourceforge.net/DTD/sodipodi-0.dtd"
   xmlns:inkscape="http://www.inkscape.org/namespaces/inkscape"
   width="559.62469"
   height="398.29596"
   id="svg2"
   sodipodi:version="0.32"
   inkscape:version="0.91 r"
   version="1.0"
   sodipodi:docname="Bananas.svg"
   inkscape:export-filename="C:\Documents and Settings\Elembis\My Documents\Images\Shartak\Shartak.com\banana.png"
   inkscape:export-xdpi="25.797226"
   inkscape:export-ydpi="25.797226">
  <defs
     id="defs4" />
  <sodipodi:namedview
     id="base"
     pagecolor="#ffffff"
     bordercolor="#666666"
     borderopacity="1.0"
     gridtolerance="10000"
     guidetolerance="10"
     objecttolerance="10"
     inkscape:pageopacity="0.0"
     inkscape:pageshadow="2"
     inkscape:zoom="1"
     inkscape:cx="257.85399"
     inkscape:cy="231.60006"
     inkscape:document-units="px"
     inkscape:current-layer="layer1"
     inkscape:window-width="1920"
     inkscape:window-height="988"
     inkscape:window-x="0"
     inkscape:window-y="25"
     showgrid="false"
     inkscape:window-maximized="1" />
  <metadata
     id="metadata7">
    <rdf:RDF>
      <cc:Work
         rdf:about="">
        <dc:format>image/svg+xml</dc:format>
        <dc:type
           rdf:resource="http://purl.org/dc/dcmitype/StillImage" />
        <dc:title></dc:title>
      </cc:Work>
    </rdf:RDF>
  </metadata>
  <g
     inkscape:label="Layer 1"
     inkscape:groupmode="layer"
     id="layer1"
     transform="translate(-66.38047,-366.3222)">
    <g
       id="g9893"
       inkscape:transform-center-x="71.888273"
       inkscape:transform-center-y="92.311006"
       transform="matrix(0.81691028,0,0,0.81691028,62.153582,117.64708)">
      <path
         transform="translate(-17.85713,318.6479)"
         sodipodi:nodetypes="csccccc"
         id="path17976"
         d="m 543,119 c 0,0 4,58 -12,70 -16,12 -134,131 -134,131 l 22,25 143,-97 11,-127 -30,-2 z"
         style="fill:#ffc701;fill-opacity:1;fill-rule:evenodd;stroke:none;stroke-width:1px;stroke-linecap:butt;stroke-linejoin:miter;stroke-opacity:1"
         inkscape:connector-curvature="0" />
      <path
         sodipodi:nodetypes="csccccc"
         id="path18863"
         d="m 525.14247,437.64826 c 0,0 4,58 -12,70 -16,12 -134,131 -134,131 l 22,25 143,-97 11,-127 -30,-2 z"
         style="opacity:0.7;fill:#000000;fill-opacity:1;fill-rule:evenodd;stroke:none;stroke-width:1px;stroke-linecap:butt;stroke-linejoin:miter;stroke-opacity:1"
         inkscape:connector-curvature="0" />
    </g>
    <g
       id="g2783"
       transform="matrix(0.81691028,0,0,0.81691028,62.153582,117.64708)">
      <path
         id="path6424"
         d="m 519.9114,399.65406 -36.52461,54.79917 c 0,0 -29.26053,7.2678 -44.09236,16.48823 -14.83184,9.22043 -61.43664,43.24968 -164.54674,35.94921 -103.1101,-7.30046 -118.42527,-29.33328 -140.7714,-30.13958 -22.34613,-0.80629 -56.13854,3.07596 -64.3292,9.31398 -8.19066,6.23803 1.60294,25.02859 1.60294,25.02859 0,0 29.96733,67.40144 139.05561,95.05531 109.08827,27.65387 238.23966,-29.44168 238.23966,-29.44168 L 538.74205,411.07361 519.9114,399.65406 Z"
         style="fill:#ffc701;fill-opacity:1;fill-rule:evenodd;stroke:none;stroke-width:2;stroke-linecap:butt;stroke-linejoin:miter;stroke-miterlimit:4;stroke-dasharray:none;stroke-opacity:1"
         inkscape:connector-curvature="0" />
      <path
         id="path1895"
         d="m 517.00522,404.00971 -33.625,50.4375 c 0,0 -29.26192,7.27957 -44.09375,16.5 -14.83185,9.22043 -61.42115,43.23797 -164.53125,35.9375 -103.1101,-7.30046 -118.43512,-29.3187 -140.78125,-30.125 -22.34612,-0.80628 -56.12184,3.07448 -64.3125,9.3125 -0.37177,0.28315 -0.69973,0.60557 -1,0.9375 19.28449,-2.79797 47.71368,-2.22918 67.71875,1.40625 38.39063,6.97656 73.59753,30.23977 163.125,27.8125 127.23187,-3.48848 142.15968,-43.12542 159.875,-47.8125 24.62815,-6.51605 71.10422,-16.0697 57.625,-64.40625 z"
         style="opacity:0.4;fill:#ffffff;fill-opacity:1;fill-rule:evenodd;stroke:none;stroke-width:2;stroke-linecap:butt;stroke-linejoin:miter;stroke-miterlimit:4;stroke-dasharray:none;stroke-opacity:1"
         inkscape:connector-curvature="0" />
      <path
         id="path9086"
         d="m 106.96213,554.70796 c 21.5317,18.70671 54.48135,39.05459 103.3438,51.44122 11.76428,2.98225 23.76957,4.96155 35.81336,6.15044 l 38.71259,-7.84693 C 220.5418,614.51673 142.31641,575.18761 106.96213,554.70796 Z"
         style="opacity:0.4;fill:#000000;fill-opacity:1;fill-rule:evenodd;stroke:none;stroke-width:1px;stroke-linecap:butt;stroke-linejoin:miter;stroke-opacity:1"
         inkscape:connector-curvature="0" />
    </g>
    <g
       id="g9941"
       transform="matrix(0.81691028,0,0,0.81691028,62.153582,117.64708)">
      <path
         transform="translate(-17.85713,318.6479)"
         inkscape:transform-center-y="181"
         inkscape:transform-center-x="126"
         sodipodi:nodetypes="cssssssssc"
         id="path12644"
         d="m 546,120 c 0,0 21,55 15,69 -6,14 -41,94 -106,124 -65,30 -232,26 -236,18 -4,-8 0,76 101,107 101,31 230.08904,-36.90729 253,-59 29,-28 84,-100 68,-154 -16,-54 -28,-38 -37,-53 -9,-15 -19,-44 -19,-56 0,-12 -38,4 -39,4 z"
         style="opacity:1;fill:#ffc701;fill-opacity:1;fill-rule:evenodd;stroke:none;stroke-width:2;stroke-linecap:butt;stroke-linejoin:miter;stroke-miterlimit:4;stroke-dasharray:none;stroke-opacity:1"
         inkscape:connector-curvature="0" />
      <path
         id="path8981"
         d="m 533.7244,527.63751 c -15.19469,29.64786 -47.22491,81.21438 -96.59375,104 -64.99999,30 -232,26 -236,18 -1,-2 -1.48437,1.76562 -0.0937,9 l 0.0312,0.125 2.0625,6.875 c -1e-5,0 -0.16245,0.015 -0.375,0.0937 0.10368,0.36147 0.23276,0.7547 0.34375,1.125 0.1469,0.48927 0.27735,0.96461 0.4375,1.46875 0.28804,0.90672 0.63602,1.86067 0.96875,2.8125 0.11184,0.31995 0.19543,0.644 0.3125,0.96875 0.2259,0.62845 0.50411,1.26062 0.75,1.90625 0.28355,0.74248 0.53272,1.48628 0.84375,2.25 0.2204,0.54264 0.48407,1.10358 0.71875,1.65625 0.31499,0.73966 0.6274,1.46236 0.96875,2.21875 0.16217,0.36044 0.3317,0.72974 0.5,1.09375 1.09177,2.36133 2.29104,4.79282 3.65625,7.28125 0.0356,0.0648 0.0892,0.12265 0.125,0.1875 0.016,0.0291 0.0152,0.0646 0.0312,0.0937 0.36199,0.65442 0.74306,1.30751 1.125,1.96875 0.0352,0.0611 0.0583,0.12634 0.0937,0.1875 0.4036,0.69603 0.82377,1.39109 1.25,2.09375 0.45547,0.75087 0.92431,1.52383 1.40625,2.28125 0.008,0.0122 0.0235,0.0191 0.0312,0.0312 0.46162,0.72508 0.91959,1.45729 1.40625,2.1875 0.003,0.005 0.0281,-0.005 0.0312,0 40.79912,17.90201 185.46875,-16.4375 250.375,-63.90625 45.69018,-33.41522 60.67589,-79.84139 65.59375,-106 z"
         style="opacity:0.6;fill:#000000;fill-opacity:1;fill-rule:evenodd;stroke:none;stroke-width:2;stroke-linecap:butt;stroke-linejoin:miter;stroke-miterlimit:4;stroke-dasharray:none;stroke-opacity:1"
         inkscape:connector-curvature="0" />
      <path
         id="path17089"
         d="m 559.79937,430.17885 c -1.61428,0.0282 -3.4144,0.2431 -5.3125,0.5625 6.27105,19.25501 36.34718,112.96673 33.65625,130.90625 -3,20 -34.83369,92.70022 -87,124 -35,21 -111,54 -138,59 -17.08755,3.16436 -50.52699,7.81761 -76.65625,6.46875 4.94823,1.98371 10.1448,3.83962 15.65625,5.53125 101,31 230.08904,-36.90729 253,-59 29,-28 84,-100 68,-154 -16,-54 -28,-38 -37,-53 -9,-15 -19,-44 -19,-56 0,-3.375 -3.00058,-4.54456 -7.34375,-4.46875 z"
         style="opacity:0.4;fill:#000000;fill-opacity:1;fill-rule:evenodd;stroke:none;stroke-width:1px;stroke-linecap:butt;stroke-linejoin:miter;stroke-opacity:1"
         inkscape:connector-curvature="0" />
    </g>
    <g
       id="g9903"
       transform="matrix(0.81691028,0,0,0.81691028,62.153582,117.64708)">
      <path
         sodipodi:nodetypes="cssccccc"
         id="path1933"
         d="m 533.14287,448.6479 c 0,0 -19,19 -14,37 5,18 22,62 -41,112 -63,50 -246,137 -369,42 -35,-40 -15,-66 -15,-66 0,0 19.98705,-2.89033 28,-2 10,-3 57,0 101,2 58.9104,-1.15782 220,-76 251,-105 0,0 38,-46 39,-54 1,-8 27,16 28,23 1,7 -8,10 -8,11 z"
         style="fill:#ffc701;fill-opacity:1;fill-rule:evenodd;stroke:none;stroke-width:2;stroke-linecap:butt;stroke-linejoin:miter;stroke-miterlimit:4;stroke-dasharray:none;stroke-opacity:1"
         inkscape:connector-curvature="0" />
      <path
         sodipodi:nodetypes="cssccccsscc"
         id="path7201"
         d="m 514.60028,413.04467 c -0.80859,0.0957 -1.34375,0.59375 -1.46875,1.59375 -1,8 -39,53.99999 -39,54 -31,29 -192.08962,103.84218 -251.00001,105 -44,-2 -91,-5 -101,-2 -8.01294,-0.89033 -28,2 -28,2 0,0 -0.36592,0.5276 -0.90625,1.4375 10.9591,3.20692 30.90061,7.67422 63.15625,8.53125 74.39063,1.97656 105.62501,-2.0625 170.12501,-27.1875 67.63033,-26.34437 158.31765,-60.20012 193.875,-141.0625 -2.41058,-1.54019 -4.48046,-2.46646 -5.78125,-2.3125 z"
         style="opacity:0.4;fill:#ffffff;fill-opacity:1;fill-rule:evenodd;stroke:none;stroke-width:2;stroke-linecap:butt;stroke-linejoin:miter;stroke-miterlimit:4;stroke-dasharray:none;stroke-opacity:1"
         inkscape:connector-curvature="0" />
      <path
         id="path4646"
         d="m 518.58062,482.8981 c -8.18518,28.13501 -41.31417,102.57604 -168.4375,145.75 -155.44603,52.79299 -193.32494,22.43444 -243.53125,7.96875 0.81945,0.99799 1.64203,2.01499 2.53125,3.03125 123,95 306,8 369,-42 63,-50 46,-94 41,-112 -0.25461,-0.91661 -0.42668,-1.83084 -0.5625,-2.75 z"
         style="opacity:0.4;fill:#000000;fill-opacity:1;fill-rule:evenodd;stroke:none;stroke-width:1px;stroke-linecap:butt;stroke-linejoin:miter;stroke-opacity:1"
         inkscape:connector-curvature="0" />
    </g>
    <g
       id="g9946"
       transform="matrix(0.81691028,0,0,0.81691028,62.153582,117.64708)">
      <path
         sodipodi:nodetypes="czsssz"
         id="path23294"
         d="m 534.47367,391.42537 c -5.75,-1.5 -25.75751,14.30388 -25.40521,19.5948 0.35183,5.28388 19.46608,22.4162 31.57435,26.5539 4,1 26,-1 27,-5 1,-4 1,-21 -3,-25 -4,-4 -23.4784,-14.40329 -30.16914,-16.1487 z"
         style="fill:#884a13;fill-opacity:1;fill-rule:evenodd;stroke:none;stroke-width:4;stroke-linecap:butt;stroke-linejoin:miter;stroke-miterlimit:4;stroke-dasharray:none;stroke-opacity:1"
         inkscape:connector-curvature="0" />
      <path
         sodipodi:nodetypes="czsssz"
         id="path22407"
         d="m 534.47374,391.42502 c -5.75,-1.5 -25.75751,14.30388 -25.40521,19.5948 0.35183,5.28388 19.46608,22.4162 31.57435,26.5539 4,1 26,-1 27,-5 1,-4 1,-21 -3,-25 -4,-4 -23.4784,-14.40329 -30.16914,-16.1487 z"
         style="fill:#884a13;fill-opacity:1;fill-rule:evenodd;stroke:none;stroke-width:1px;stroke-linecap:butt;stroke-linejoin:miter;stroke-opacity:1"
         inkscape:connector-curvature="0" />
      <path
         id="path25958"
         d="m 533.23672,391.3354 c -6.93466,0.51968 -24.48653,14.72726 -24.15625,19.6875 0.14153,2.12551 3.3387,6.15706 7.875,10.5 0.28631,-8.33796 4.42345,-20.43463 23.71875,-27.75 -2.49657,-1.10736 -4.67325,-1.94873 -6.1875,-2.34375 -0.35938,-0.0937 -0.78769,-0.1284 -1.25,-0.0937 z"
         style="opacity:0.3;fill:#ffffff;fill-opacity:1;fill-rule:evenodd;stroke:none;stroke-width:1px;stroke-linecap:butt;stroke-linejoin:miter;stroke-opacity:1"
         inkscape:connector-curvature="0" />
      <path
         id="path26854"
         d="m 564.58087,407.52257 c 0.15241,18.25873 -15.53392,25.95881 -26.375,29.09375 0.83558,0.37004 1.65365,0.70089 2.4375,0.96875 4.00001,1 26,-1 27,-5 1.00001,-4 1,-21 -3,-25 -0.0175,-0.0175 -0.0444,-0.0448 -0.0625,-0.0625 z"
         style="opacity:0.4;fill:#000000;fill-opacity:1;fill-rule:evenodd;stroke:none;stroke-width:1px;stroke-linecap:butt;stroke-linejoin:miter;stroke-opacity:1"
         inkscape:connector-curvature="0" />
    </g>
  </g>
</svg>
