<?xml version="1.0" encoding="UTF-8" standalone="no"?>
<!-- Created with Inkscape (http://www.inkscape.org/) -->

<svg
   xmlns:dc="http://purl.org/dc/elements/1.1/"
   xmlns:cc="http://creativecommons.org/ns#"
   xmlns:rdf="http://www.w3.org/1999/02/22-rdf-syntax-ns#"
   xmlns:svg="http://www.w3.org/2000/svg"
   xmlns="http://www.w3.org/2000/svg"
   xmlns:sodipodi="http://sodipodi.sourceforge.net/DTD/sodipodi-0.dtd"
   xmlns:inkscape="http://www.inkscape.org/namespaces/inkscape"
   width="297mm"
   height="240mm"
   viewBox="0 0 1052.3622 850.3937"
   id="svg2"
   version="1.1"
   inkscape:version="0.91 r"
   sodipodi:docname="duel.svg">
  <defs
     id="defs4">
    <inkscape:perspective
       sodipodi:type="inkscape:persp3d"
       inkscape:vp_x="-220.31905 : -1129.47 : 1"
       inkscape:vp_y="0 : 212.10625 : 0"
       inkscape:vp_z="223.15014 : -1129.47 : 1"
       inkscape:persp3d-origin="1.4155389 : -1166.6722 : 1"
       id="perspective4136" />
  </defs>
  <sodipodi:namedview
     id="base"
     pagecolor="#ffffff"
     bordercolor="#666666"
     borderopacity="1.0"
     inkscape:pageopacity="0.0"
     inkscape:pageshadow="2"
     inkscape:zoom="0.98994949"
     inkscape:cx="465.95778"
     inkscape:cy="400.29776"
     inkscape:document-units="px"
     inkscape:current-layer="layer1"
     showgrid="false"
     showguides="true"
     inkscape:guide-bbox="true"
     inkscape:window-width="1920"
     inkscape:window-height="988"
     inkscape:window-x="0"
     inkscape:window-y="25"
     inkscape:window-maximized="1">
    <sodipodi:guide
       position="275.71429,-887.14288"
       orientation="0,1"
       id="guide4152" />
  </sodipodi:namedview>
  <metadata
     id="metadata7">
    <rdf:RDF>
      <cc:Work
         rdf:about="">
        <dc:format>image/svg+xml</dc:format>
        <dc:type
           rdf:resource="http://purl.org/dc/dcmitype/StillImage" />
        <dc:title />
      </cc:Work>
    </rdf:RDF>
  </metadata>
  <g
     inkscape:label="Layer 1"
     inkscape:groupmode="layer"
     id="layer1"
     transform="translate(0,-201.9685)">
    <path
       inkscape:connector-curvature="0"
       id="path4156"
       style="fill:#afafde;fill-opacity:1;fill-rule:evenodd;stroke:none;stroke-width:1px;stroke-linecap:butt;stroke-linejoin:round;stroke-miterlimit:4;stroke-dasharray:none;stroke-opacity:1"
       d="m 35.775909,916.72531 330.762291,28.745 38.88787,-8.60609 -350.280218,-20.29419 z" />
    <path
       inkscape:connector-curvature="0"
       id="path4160"
       style="fill:#e9e9ff;fill-opacity:1;fill-rule:evenodd;stroke:none;stroke-width:1px;stroke-linecap:butt;stroke-linejoin:round;stroke-miterlimit:4;stroke-dasharray:none;stroke-opacity:1"
       d="m 55.145852,857.90102 350.280218,-303.48215 0,382.44535 -350.280218,-20.29419 z" />
    <path
       inkscape:connector-curvature="0"
       id="path4164"
       style="fill:#78c800;fill-opacity:1;fill-rule:evenodd;stroke:none;stroke-width:1px;stroke-linecap:butt;stroke-linejoin:round;stroke-miterlimit:4;stroke-dasharray:none;stroke-opacity:1"
       d="m 366.5382,425.72048 0,519.74983 38.88787,-8.60609 0,-382.44535 z" />
    <path
       inkscape:connector-curvature="0"
       id="path4166"
       style="fill:#8cdc00;fill-opacity:1;fill-rule:evenodd;stroke:none;stroke-width:1px;stroke-linecap:butt;stroke-linejoin:round;stroke-miterlimit:4;stroke-dasharray:none;stroke-opacity:1"
       d="M 48.907889,839.41589 366.5382,425.72048 l 0,519.74983 -352.625306,11.61748 z"
       sodipodi:nodetypes="ccccc" />
    <path
       inkscape:connector-curvature="0"
       id="path4156-3"
       style="fill:#afafde;fill-opacity:1;fill-rule:evenodd;stroke:none;stroke-width:1px;stroke-linecap:butt;stroke-linejoin:round;stroke-miterlimit:4;stroke-dasharray:none;stroke-opacity:1"
       d="m 981.96797,839.36255 -345.60382,30.03482 -40.6328,-8.99226 365.99752,-21.20481 z"
       sodipodi:nodetypes="ccccc" />
    <path
       inkscape:connector-curvature="0"
       id="path4158-6"
       style="fill:#353564;fill-opacity:1;fill-rule:evenodd;stroke:none;stroke-width:1px;stroke-linecap:butt;stroke-linejoin:round;stroke-miterlimit:4;stroke-dasharray:none;stroke-opacity:1"
       d="m 981.96797,775.47185 0,63.8907 -20.2391,-0.16225 0,-61.30153 z"
       sodipodi:nodetypes="ccccc" />
    <path
       inkscape:connector-curvature="0"
       id="path4160-7"
       style="fill:#e9e9ff;fill-opacity:1;fill-rule:evenodd;stroke:none;stroke-width:1px;stroke-linecap:butt;stroke-linejoin:round;stroke-miterlimit:4;stroke-dasharray:none;stroke-opacity:1"
       d="m 961.72887,777.89877 -365.99752,-317.09964 0,399.60598 365.99752,-21.20481 z"
       sodipodi:nodetypes="ccccc" />
    <path
       inkscape:connector-curvature="0"
       id="path4162-5"
       style="fill:#4d4d9f;fill-opacity:1;fill-rule:evenodd;stroke:none;stroke-width:1px;stroke-linecap:butt;stroke-linejoin:round;stroke-miterlimit:4;stroke-dasharray:none;stroke-opacity:1"
       d="M 981.96797,775.47185 636.36415,326.32595 595.73135,460.79913 961.72887,777.89877 Z"
       sodipodi:nodetypes="ccccc" />
    <path
       inkscape:connector-curvature="0"
       id="path4164-3"
       style="fill:#78c800;fill-opacity:1;fill-rule:evenodd;stroke:none;stroke-width:1px;stroke-linecap:butt;stroke-linejoin:round;stroke-miterlimit:4;stroke-dasharray:none;stroke-opacity:1"
       d="m 636.36415,326.32595 0,543.07142 -40.6328,-8.99226 L 565.8584,437.9551 Z"
       sodipodi:nodetypes="ccccc" />
    <path
       inkscape:connector-curvature="0"
       id="path4166-5"
       style="fill:#8cdc00;fill-opacity:1;fill-rule:evenodd;stroke:none;stroke-width:1px;stroke-linecap:butt;stroke-linejoin:round;stroke-miterlimit:4;stroke-dasharray:none;stroke-opacity:1"
       d="m 1024.1416,761.41399 -387.77745,-435.08804 0,543.07142 345.60382,-30.03482 z"
       sodipodi:nodetypes="ccccc" />
    <path
       style="opacity:1;fill:#ffffff;fill-opacity:1;stroke:#e6e6e6;stroke-width:1;stroke-miterlimit:4;stroke-dasharray:none;stroke-opacity:1"
       d="m 330.42154,599.49718 c 25.50834,-3.73443 66.96351,16.05637 85.55492,26.60385 6.10869,3.46565 4.46893,9.74626 4.46893,9.74626 0,0 -2.4273,6.62756 -4.25074,8.76298 -8.96728,10.50147 -35.02273,33.70809 -63.1857,37.83116 -24.4044,3.57281 -60.18472,-2.28562 -75.90292,-9.64342 -6.10927,-2.85979 -8.76379,-8.84955 -8.76379,-8.84955 0,0 -2.09513,-3.14464 2.26084,-9.51939 12.82134,-18.76337 34.52275,-51.22858 59.81846,-54.93189 z"
       id="rect4204"
       inkscape:connector-curvature="0"
       sodipodi:nodetypes="sscssscss" />
    <path
       style="opacity:1;fill:#ffffff;fill-opacity:1;stroke:#e6e6e6;stroke-width:1;stroke-miterlimit:4;stroke-dasharray:none;stroke-opacity:1"
       d="m 590.87099,480.8301 c 36.0707,-12.13169 106.54057,0.72934 118.79531,16.46987 3.99519,5.1316 4.79345,3.66152 4.7912,4.90633 -0.002,1.24481 0.009,0.66203 -0.002,1.24481 -0.0928,4.69179 -2.14822,10.34239 -2.14896,10.34264 0,0 -35.46708,62.91416 -77.46294,77.03866 -30.27433,10.18219 -81.74798,-0.0943 -109.12016,-8.85516 -2.69382,-0.86219 -6.92263,-3.47813 -9.06841,-4.25202 -6.29605,-2.27072 -10.03246,-7.71358 -10.03246,-7.71358 0,0 -0.0858,-6.43137 4.16197,-13.1511 13.52296,-21.39246 48.12921,-65.28216 80.0867,-76.03045 z"
       id="rect4204-6"
       inkscape:connector-curvature="0"
       sodipodi:nodetypes="cssscssscssc" />
    <ellipse
       style="opacity:1;fill:#4d4d4d;fill-opacity:1;stroke:#4d4d4d;stroke-width:3;stroke-miterlimit:4;stroke-dasharray:none;stroke-opacity:1"
       id="path4222"
       cx="357.14285"
       cy="639.21936"
       rx="24.285715"
       ry="22.857143" />
    <ellipse
       style="opacity:1;fill:#4d4d4d;fill-opacity:1;stroke:#4d4d4d;stroke-width:3;stroke-miterlimit:4;stroke-dasharray:none;stroke-opacity:1"
       id="path4222-2"
       cx="568.28577"
       cy="549.21936"
       rx="24.285715"
       ry="22.857143" />
  </g>
</svg>
