<?xml version="1.0" encoding="UTF-8" standalone="no"?>
<!-- Created with Inkscape (http://www.inkscape.org/) -->

<svg
   xmlns:dc="http://purl.org/dc/elements/1.1/"
   xmlns:cc="http://creativecommons.org/ns#"
   xmlns:rdf="http://www.w3.org/1999/02/22-rdf-syntax-ns#"
   xmlns:svg="http://www.w3.org/2000/svg"
   xmlns="http://www.w3.org/2000/svg"
   xmlns:sodipodi="http://sodipodi.sourceforge.net/DTD/sodipodi-0.dtd"
   xmlns:inkscape="http://www.inkscape.org/namespaces/inkscape"
   width="460"
   height="460"
   viewBox="0 0 460 460.00001"
   id="svg7433"
   version="1.1"
   inkscape:version="0.91 r"
   sodipodi:docname="earth.svg">
  <defs
     id="defs7435" />
  <sodipodi:namedview
     id="base"
     pagecolor="#ffffff"
     bordercolor="#666666"
     borderopacity="1.0"
     inkscape:pageopacity="0.0"
     inkscape:pageshadow="2"
     inkscape:zoom="1.4"
     inkscape:cx="-57.857143"
     inkscape:cy="214.28571"
     inkscape:document-units="px"
     inkscape:current-layer="layer1"
     showgrid="false"
     units="px"
     inkscape:showpageshadow="false"
     inkscape:window-width="1366"
     inkscape:window-height="716"
     inkscape:window-x="0"
     inkscape:window-y="0"
     inkscape:window-maximized="1" />
  <metadata
     id="metadata7438">
    <rdf:RDF>
      <cc:Work
         rdf:about="">
        <dc:format>image/svg+xml</dc:format>
        <dc:type
           rdf:resource="http://purl.org/dc/dcmitype/StillImage" />
        <dc:title></dc:title>
      </cc:Work>
    </rdf:RDF>
  </metadata>
  <g
     inkscape:label="Layer 1"
     inkscape:groupmode="layer"
     id="layer1"
     transform="translate(0,-592.36216)">
    <g
       style="display:inline"
       transform="matrix(1.2396413,0,0,1.2396413,-205.23807,387.37207)"
       id="g6641">
      <circle
         style="fill:#4dc4d2"
         id="circle6085"
         r="184.7"
         cy="351"
         cx="351" />
      <path
         style="fill:#ffffff"
         inkscape:connector-curvature="0"
         id="path6087"
         d="m 351,166.1 c -6.1,0 -12.1,0.3 -18,0.9 l 34.5,12.5 0.8,15.7 37.7,24.4 1.6,-22.8 20.4,-13.9 c -23.4,-10.8 -49.5,-16.8 -77,-16.8 z" />
      <path
         style="fill:#4dac47"
         inkscape:connector-curvature="0"
         id="path6089"
         d="M 528.6,299.9 C 524.2,284.5 517.8,270 509.8,256.6 l -25.2,-7 -8.6,7.1 3.1,8.6 -13.4,6.3 -1.6,20.4 33.8,-13.4 30.7,21.3 z" />
      <path
         style="fill:#4dac47"
         inkscape:connector-curvature="0"
         id="path6091"
         d="m 534.9,333.1 -17.2,-26.9 -11,5.5 -11,-20.4 -39.3,28.3 7.9,53.5 35.4,18.1 9.4,55.7 c 17,-27.9 26.8,-60.7 26.8,-95.8 -0.2,-6.1 -0.5,-12.1 -1,-18 z M 276.3,193 l 1.6,19.6 19.6,-6.3 7.1,-11.7 L 296,182 Z m 39.3,12.6 2.4,-11 11,-2.4 4.7,10.2 z m 178.5,39.3 -11.8,-3.2 -7.1,-16.5 z" />
      <path
         style="fill:#4dac47"
         inkscape:connector-curvature="0"
         id="path6093"
         d="m 285.6,382.4 103.8,51.9 -68.5,99 -9.5,-1.8 -9.2,-2.3 6.6,-47 -30.2,-47.1 3.9,-40.1 -53.5,-29.1 -39.3,-62.1 1.5,-45.5 c 0,0 6.2,-11.3 14.2,-21.3 8.1,-10.1 15.9,-17.5 15.9,-17.5 l 45.6,-10.8 -4.1,18.1 -9.1,4 23.9,25.2 18.9,-13.4 8.6,-25.9 44.8,10.2 9.4,22 -42.7,41.7 -17.6,17.1 -6.2,31.7 -18.3,-12.8 -22,4.7 -1.7,25.6 19,-8.3 15.8,33.8 z" />
    </g>
  </g>
</svg>
